<svg id="Layer_2" data-name="Layer 2" 
  xmlns="http://www.w3.org/2000/svg" viewBox="0 0 1238.06 330.03">
  <defs>
    <style>.cls-1{fill:#3f51b5;}.cls-2{fill:#fff;}.cls-3{font-size:275.97px;font-family:Roboto-Medium, Roboto;}.cls-4{letter-spacing:-.03em;}.cls-5{letter-spacing:-.01em;}.cls-6{letter-spacing:-.01em;}.cls-7{letter-spacing:0em;}</style>
  </defs>
  <title>logo-extended</title>
  <rect class="cls-1" x="16" y="17" width="280" height="280" rx="52.75" ry="52.75"/>
  <path class="cls-2" d="M41,275,177,138l-69.68,26c-4,1.72-7.78.39-11.53-4L73,138c-10-10-6-22,7-26L216,75c18-5,28,2,24,21L203,234c-3,13-19,16-27,8l-18-19c-9.73-10.74-26.5-6-47,7Z"/>
  <text class="cls-3" transform="translate(310.72 267.14)">u<tspan class="cls-4" x="153.35" y="0">T</tspan>
    <tspan class="cls-5" x="312.08" y="0">r</tspan>
    <tspan class="cls-6" x="405.06" y="0">a</tspan>
    <tspan class="cls-7" x="552.34" y="0">vel</tspan>
  </text>
</svg>